<svg version="1" xmlns="http://www.w3.org/2000/svg" width="1880" height="1880" viewBox="0 0 1410.000000 1410.000000"><path d="M255.1 153.8c-.2 162.5-.4 155.8 4.4 160.7 1.1 1.2 6.7 4.9 12.5 8.4s10.7 6.7 11 7.1c.3.3 2 1.2 3.8 1.9 1.7.8 3.2 1.7 3.2 2.1 0 .4.8 1 1.8 1.3.9.4 3.3 1.6 5.3 2.9 5.9 3.7 24.7 15.2 26.7 16.3.9.5 4.8 2.9 8.4 5.2 3.7 2.4 7.2 4.3 7.8 4.3.5 0 1 .3 1 .8 0 .4.9 1.2 2 1.7 1.1.6 6.8 3.9 12.6 7.5 5.9 3.6 11.9 7.2 13.3 8 1.4.9 4.5 2.8 6.8 4.3 2.4 1.5 4.5 2.7 4.8 2.7.3 0 1.1.5 1.8 1 1.1 1 30.4 19.1 37.2 23 1.7.9 9 5.4 16.3 9.8 7.3 4.5 13.7 8.2 14.2 8.2.6 0 1 .4 1 1 0 .5.7 1 1.5 1s1.5.3 1.5.8c0 .7.3.9 8.3 5.1 2.6 1.4 4.7 2.9 4.7 3.3 0 .4.5.8 1 .8.6 0 4.7 2.3 9.3 5.2 4.5 2.8 11.4 7 15.2 9.3 7.5 4.5 29.5 17.9 51.3 31.3 7.4 4.5 13.8 8.2 14.3 8.2s.9.4.9 1c0 .5.5 1 1 1 .6 0 3.4 1.5 6.3 3.4 2.8 1.9 14 8.7 24.7 15.1 20.3 12.3 27.8 16.9 29.5 18.2.6.5 2.7 1.7 4.8 2.7 2 1.1 3.7 2.3 3.7 2.8 0 .4.5.8 1.1.8.6 0 3.8 1.6 7 3.7 6 3.6 11 4.6 13.2 2.4.6-.6 1.9-1.1 2.9-1.1s1.8-.4 1.8-.8c0-.5 1.8-1.7 4-2.7 2.2-1 4-2.2 4-2.6 0-.4 1-1.1 2.3-1.5 1.2-.4 3.6-1.7 5.3-3 1.7-1.3 3.4-2.4 3.7-2.4.3 0 2.6-1.4 5-3 2.5-1.7 5-3 5.6-3 .6 0 1.1-.5 1.1-1 0-.6.6-1 1.3-1 .7 0 2.4-1 3.7-2.3 1.4-1.2 2.6-2.1 2.8-1.9.3.3 16.8-9.6 21.4-12.9 1.5-1 2.9-1.9 3.2-1.9.2 0 4-2.2 8.3-5 4.3-2.7 9.7-5.9 12.1-7.1 2.3-1.3 4.2-2.6 4.2-3 0-.4.9-1.1 2.1-1.4 1.1-.4 4-2 6.4-3.6 2.4-1.6 4.8-2.9 5.4-2.9.6 0 1.1-.5 1.1-1 0-.6.4-1 .9-1s3.3-1.6 6.2-3.5c3-1.9 5.9-3.5 6.6-3.5.7 0 1.3-.4 1.3-.9s1.4-1.4 3-2.1c1.7-.7 3-1.6 3-2.1s.5-.9 1-.9c.6 0 2.9-1.2 5.3-2.8 2.3-1.5 4.7-2.9 5.2-3.2 3.2-1.6 16.2-9.7 17.3-10.7.7-.7 1.8-1.3 2.3-1.3.6 0 2.5-1.1 4.3-2.5 1.8-1.4 3.6-2.5 4-2.5.4 0 1.9-.8 3.4-1.9 3.5-2.4 25.9-16.2 29.2-17.9 1.4-.7 3.2-2 4.1-2.8.8-.8 1.9-1.4 2.2-1.4.4 0 3.1-1.6 6.1-3.5 3-1.9 5.7-3.5 6-3.5.5 0 6.9-4 9.1-5.7.6-.5 2.7-1.7 4.8-2.8 2-1.1 3.7-2.3 3.7-2.7 0-.5.5-.8 1.1-.8 2.1 0 10.9-6.5 10.9-8.2 0-.9-1.7-2.7-3.7-3.9-2.1-1.3-4-2.6-4.3-3-.3-.3-2.3-1.6-4.5-2.8-2.2-1.2-5.3-3-7-4.1-1.6-1.1-3.9-2.4-5-3-1.1-.5-5.5-3.2-9.8-6-4.3-2.7-8.3-5-8.8-5s-.9-.5-.9-1c0-.6-.4-1-1-1-.5 0-4.1-2-8-4.5-3.8-2.5-7-4.2-7-3.7 0 .4-.4.2-.8-.4-.6-1-16.8-11.4-17.7-11.4-.2 0-2.4-1.4-4.8-3-2.5-1.7-5-3-5.6-3-.6 0-1.1-.5-1.1-1 0-.6-.5-1-1.1-1-.6 0-2.9-1.2-5.2-2.8-5.2-3.3-6.7-4.2-13.7-8.4-3-1.7-5.6-3.5-5.8-4-.2-.4-.8-.8-1.3-.8s-6.3-3.4-13-7.5c-6.6-4.1-12.3-7.5-12.5-7.5-.3 0-1.7-.8-3.2-1.9-7-4.8-14.1-9.1-15.1-9.1-.6 0-1.1-.3-1.1-.8 0-.4-1.5-1.3-3.2-2.1-1.8-.8-3.5-1.7-3.8-2-.9-1.2-14.1-9.1-15.1-9.1-.5 0-.9-.5-.9-1 0-.6-.5-1-1.1-1-.6 0-2.9-1.3-5.2-2.8-2.3-1.6-4.9-3.2-5.7-3.5-.8-.4-2.7-1.5-4.2-2.5-4-2.6-17-10.5-19.3-11.8-1.1-.6-4-2.3-6.5-3.9s-5.7-3.6-7.1-4.5c-12.6-7.4-22.5-13.6-22.7-14.2-.2-.4-.8-.8-1.3-.8s-3.3-1.6-6.3-3.5-6-3.5-6.6-3.5c-.5 0-1-.3-1-.8 0-.4-.9-1.2-1.9-1.7-2.6-1.3-13-7.5-21-12.5-3.4-2.2-6.7-4-7.2-4s-.9-.5-.9-1c0-.6-.5-1-1.1-1-.6 0-3-1.4-5.4-3-2.4-1.7-4.6-3-4.9-3-.3 0-2.5-1.4-4.9-3-2.5-1.7-5-3-5.6-3-.6 0-1.1-.3-1.1-.8 0-.4-1-1.2-2.3-1.8-1.2-.6-6-3.5-10.7-6.4-4.7-2.9-10.1-6.2-12-7.3-1.9-1-5.7-3.4-8.5-5.2-2.7-1.8-7.2-4.5-10-6.1-2.7-1.5-5.2-3.1-5.5-3.4-.6-.8-5.8-3.7-8.2-4.6-1-.3-1.8-1-1.8-1.5s-.7-.9-1.5-.9-1.5-.3-1.5-.8c0-.4-2.3-1.8-5-3.1-2.8-1.4-5-2.9-5-3.3 0-.4-.5-.8-1.1-.8-.6 0-3.1-1.4-5.6-3-2.4-1.7-4.8-3-5.4-3-.5 0-.9-.5-.9-1 0-.6-.4-1-1-1-.5 0-4.1-2-8-4.5-3.9-2.5-7.2-4.5-7.5-4.5-.3 0-3.6-2-7.5-4.5s-7.5-4.5-8-4.5c-.6 0-1-.4-1-.9s-.8-1.1-1.7-1.5c-1-.3-4.9-2.6-8.8-5.1-3.8-2.5-8.2-5.1-9.7-5.7-1.6-.7-2.8-1.6-2.8-2 0-.4-.7-.8-1.5-.8s-1.5-.5-1.5-1.1c0-.5-.5-.7-1-.4-.6.3-1.3-.1-1.6-.9-.3-.9-1.5-1.6-2.5-1.6s-1.9-.4-1.9-.8c0-.5-1.2-1.5-2.7-2.3-1.6-.7-4.7-2.6-7-4.1-2.3-1.5-4.6-2.8-5.2-2.8-.6 0-1.1-.4-1.1-.9s-.8-1.1-1.7-1.5c-2.2-.7-7.7-3.9-9.8-5.6-.8-.7-2.8-2-4.4-2.9-1.6-.9-7.5-4.4-13.2-7.9-5.7-3.5-11.3-6.9-12.3-7.5-1.1-.7-5.1-3.1-8.8-5.5-3.8-2.3-7.1-4.2-7.5-4.2-.3 0-1.4-.7-2.4-1.6-2.1-1.9-7.7-5.2-10.1-6-1-.4-1.8-1-1.8-1.5s-.4-.9-1-.9c-.8 0-17.3-9.8-31-18.5-1.9-1.2-6.4-4-10-6.1-3.6-2.2-6.6-4.2-6.8-4.7-.2-.4-.8-.7-1.3-.7s-2.8-1.2-5.2-2.7c-2.3-1.5-5.1-3.3-6.2-3.9-1.1-.6-5-3-8.7-5.3-3.7-2.2-7.2-4.1-7.6-4.1-.5 0-1 68.5-1.1 152.8zM1149.6 552.5c-2 1.3-3.6 2.1-3.6 1.7 0-.4-.4-.2-.8.3-.4.6-6.5 4.6-13.7 8.9-16.9 10.3-39 23.8-59 36.1-8.8 5.4-17 10.3-18.2 10.9-1.3.6-2.3 1.5-2.3 1.9 0 .5-.4.5-1 .2-.5-.3-1-.1-1 .4 0 .6-.6 1.1-1.4 1.1-.8 0-1.6.3-1.8.7-.3.8-10.5 7.3-11.4 7.3-.2 0-4.3 2.5-8.9 5.5-4.7 3-8.8 5.5-9.1 5.5-.5 0-6.6 3.8-15.5 9.7-1.9 1.2-4 2.3-4.7 2.3-.7 0-1.2.4-1.2 1 0 .5-.4 1-.9 1-.9 0-8.2 4.4-23.6 14.2-3.3 2.1-6.5 3.8-7.2 3.8-.7 0-1.3.4-1.3.8 0 .5-2.4 2.2-5.2 3.7-2.9 1.6-5.5 3.1-5.8 3.4-.3.3-1.6 1.2-3 2s-3.4 1.9-4.4 2.5c-1.1.6-2.5 1.4-3 1.9-2.7 1.9-20.5 12.7-21.1 12.7-.3 0-1.1.5-1.8 1-1.2 1.1-4.9 3.3-42.7 26.4-9.6 5.8-18.2 11.1-19 11.6-.8.6-2.5 1.6-3.8 2.3-1.2.7-12.7 7.6-25.5 15.5-12.7 7.9-24.1 14.9-25.2 15.5-1.1.7-3.9 2.4-6.3 3.9-2.4 1.6-4.5 2.8-4.7 2.8-.5 0-29.3 17.7-32.1 19.7-.5.5-2.3 1.5-4 2.4-3.4 1.8-63.2 38.3-75.3 45.8-4.4 2.8-8.5 5.1-9 5.1s-1.1.4-1.3.8c-.1.4-5.5 3.9-11.8 7.7-6.3 3.8-15.3 9.3-20 12.2-18.5 11.3-27 16.3-28 16.3-.5 0-1 .5-1 1 0 .6-1 1.4-2.3 1.9-1.3.5-4.4 2.3-6.9 4-2.5 1.7-5.1 3.1-5.7 3.1-.6 0-1.1.4-1.1.8s-1.9 1.8-4.2 3c-2.4 1.2-9.7 5.6-16.3 9.7-6.6 4.1-13.6 8.4-15.5 9.5-1.9 1.1-5.1 3-7 4.3-2 1.2-7.3 4.4-11.9 7.2-4.6 2.7-9.5 5.8-10.9 6.7-1.5 1-3.6 2.2-4.7 2.8-2.4 1.2-5.8 3.3-6.5 4-.8.8-4.3 2.9-6 3.7-.8.3-3.4 1.9-5.7 3.5-2.4 1.6-4.3 2.5-4.3 2.1 0-.4-.4-.3-.8.3s-4.7 3.5-9.7 6.5c-4.9 3-9.1 5.7-9.3 6.1-.2.5-.7.8-1.2.8-1.1 0-11.9 6.6-14.1 8.6-1.1.9-1.9 1.4-1.9 1.1 0-.3-7.2 3.9-16.1 9.4-8.8 5.4-16.5 9.9-17 9.9s-.9.4-.9 1c0 .5-.4 1-.9 1-.8 0-26.8 15.6-29.6 17.7-.6.4-2.6 1.7-4.5 2.7-1.9 1-5.4 3.2-7.8 4.8-2.4 1.5-4.7 2.8-5.3 2.8-.5 0-.9.4-.9 1 0 .5-.5 1-1 1-.6 0-4.7 2.3-9.3 5.1-4.5 2.9-9.5 6-11.2 6.9-6.6 3.8-15.1 9-16.1 9.7-1 .8-2.9 1.9-7.6 4.5-1.3.7-2.5 1.6-2.8 1.9-.3.4-2.3 1.7-4.5 2.9s-7 4-10.7 6.3c-3.7 2.3-13.8 8.5-22.4 13.7-8.6 5.2-16.6 10.2-17.9 11-1.2.8-5.1 3.2-8.6 5.3-8 4.7-9.9 6.1-9.9 7.6 0 .6-.4 1.1-.8 1.1-.5 0-1 .8-1.2 1.7-.1 1-.3 71-.4 155.5l-.1 153.7 3-1.8c1.6-1 7.1-4.3 12-7.3 5-3 10.1-6.1 11.5-6.9 1.4-.8 2.7-1.6 3-1.9.3-.3 2.2-1.4 4.3-2.5 2-1.1 3.7-2.3 3.7-2.7 0-.5.3-.7.8-.6.4.1 3.3-1.4 6.5-3.5 3.1-2 6-3.7 6.3-3.7.5 0 12-7.2 13.9-8.7.6-.5 2.1-1.4 3.5-2.1 1.4-.7 3.9-2.1 5.5-3.2 1.7-1.1 3.9-2.4 5-3 4.3-2.3 6.6-3.7 8.3-5.3 1-1 2.1-1.7 2.5-1.7.3 0 7.9-4.5 16.9-10 30.9-18.8 38-23 38.9-23 .5 0 .9-.5.9-1 0-.6.7-1 1.5-1s1.5-.4 1.5-.9.8-1.1 1.8-1.5c.9-.3 3.1-1.5 4.7-2.6 1.7-1.1 4.6-2.9 6.5-4 3.9-2.2 4.1-2.3 28.7-17.4 9.8-6 18.8-11.4 20-12 1.3-.6 2.3-1.4 2.3-1.9 0-.4.4-.7.9-.7s11.6-6.5 24.6-14.5c13.1-8 24.1-14.5 24.5-14.5.5 0 1-.3 1.2-.8.4-1 15.6-10.2 16.8-10.2.6 0 1-.4 1-.9s1-1.3 2.3-1.7c1.2-.4 2.4-1 2.7-1.3.3-.3 6.1-4 12.9-8.1 6.8-4.1 14-8.5 16-9.8 2-1.2 4.4-2.5 5.4-2.8.9-.4 1.7-1 1.7-1.4 0-.5 1-1.2 2.3-1.6 1.2-.4 3.6-1.7 5.2-2.9 1.7-1.2 3.7-2.5 4.5-2.9 2.2-1 5.1-2.8 8.7-5.4 1.7-1.2 3.3-2.2 3.6-2.2.3 0 6-3.4 12.6-7.5 6.7-4.1 12.5-7.5 13-7.5s1.1-.3 1.3-.8c.4-1 15.6-10.2 16.8-10.2.6 0 1-.5 1-1 0-.6.5-1 1-1 .6 0 4.9-2.5 9.5-5.5 4.7-3 8.8-5.5 9-5.5.3 0 3.6-2 7.5-4.5s7.5-4.5 8-4.5c.6 0 1-.5 1-1 0-.6.6-1 1.4-1 .8 0 2.1-.6 2.8-1.3 1.7-1.7 16.8-10.7 17.9-10.7.5 0 .9-.5.9-1 0-.6.7-1 1.5-1s1.5-.5 1.5-1c0-.6.3-.9.8-.8.7.2 7-3.5 12.4-7.3 1.5-1 3-1.9 3.4-1.9.4 0 1.5-.6 2.3-1.4.9-.8 4-2.6 6.9-4.1 2.8-1.5 5.2-3.1 5.2-3.6s.9-.9 2-.9 2-.4 2-.8c0-.5 1-1.4 2.3-2 1.2-.6 4-2.3 6.2-3.6 2.2-1.4 6.6-4 9.8-5.8 3.1-1.8 5.7-3.6 5.7-4 0-.5.9-.8 2-.8s2-.3 2-.8c0-.6 16.6-11 22-13.7 1.1-.5 2-1.3 2-1.7 0-.5.5-.8 1.1-.8.7 0 3.5-1.5 6.3-3.4 2.8-1.8 7-4.4 9.4-5.6 2.3-1.2 4.4-2.6 4.7-3 .3-.5 2.6-1.9 5-3.1 2.5-1.2 4.5-2.6 4.5-3.1 0-.4.5-.8 1-.8.6 0 3.9-1.8 7.4-4 3.5-2.2 6.8-4 7.5-4 .6 0 1.1-.4 1.1-.8 0-.5 1.7-1.7 3.8-2.8 2-1 3.9-2.2 4.2-2.5.3-.3 2.1-1.4 4-2.4s3.7-2.1 4-2.4c.3-.3 1.6-1.2 3-2 4.1-2.4 38.2-23.2 42-25.6 4-2.6 24.5-15 33.5-20.3 3.3-2 6.2-3.9 6.3-4.4.2-.4.8-.8 1.3-.8s2.8-1.2 5.2-2.7c2.3-1.5 5.4-3.4 6.9-4.3 1.5-.8 7.4-4.4 13-7.9 5.7-3.5 11.2-6.9 12.3-7.5 1.1-.6 11.1-6.7 22.2-13.6 11.2-6.9 21.1-13 22-13.5 6.5-3.6 14.9-9 15.5-9.9.4-.6.8-.7.8-.3 0 .4 2.6-1 5.8-3.1 3.1-2.1 8.3-5.4 11.6-7.3 3.2-1.9 7.3-4.3 9-5.4 1.8-1.1 6.6-4 10.7-6.4 4.1-2.4 8.2-5.1 9.2-5.9.9-.8 1.7-1.1 1.7-.6 0 .5.5.1 1.1-.9.5-.9 1.4-1.7 1.8-1.7.5 0 8.7-4.8 18.2-10.6 9.6-5.9 21.2-13 25.9-15.8 4.7-2.8 9.9-6.4 11.5-8l3-2.9.3-154.9c.1-87.3-.2-154.8-.7-154.8-.4 0-2.5 1.1-4.5 2.5z"/></svg>